<?xml version="1.0" encoding="UTF-8"?>
<svg id="weaviate_logos" data-name="weaviate logos" xmlns="http://www.w3.org/2000/svg" xmlns:xlink="http://www.w3.org/1999/xlink" viewBox="0 0 302.78 210.16">
  <defs>
    <style>
      .cls-1 {
        mask: url(#mask);
      }

      .cls-2 {
        fill: url(#linear-gradient-8);
      }

      .cls-3 {
        fill: url(#linear-gradient-7);
      }

      .cls-4 {
        fill: url(#linear-gradient-5);
      }

      .cls-5 {
        fill: url(#linear-gradient-6);
      }

      .cls-6 {
        fill: url(#linear-gradient-9);
      }

      .cls-7 {
        fill: url(#linear-gradient-4);
      }

      .cls-8 {
        fill: url(#linear-gradient-3);
      }

      .cls-9 {
        fill: url(#linear-gradient-2);
      }

      .cls-10 {
        fill: url(#linear-gradient);
      }

      .cls-11 {
        fill: #fff;
      }

      .cls-12 {
        fill: #130c49;
      }
    </style>
    <mask id="mask" x="77.62" y="30.36" width="147.53" height="89.05" maskUnits="userSpaceOnUse">
      <g id="mask0_9477_1413" data-name="mask0 9477 1413">
        <path class="cls-11" d="M220.37,46.1l-25.54-14.85c-4.29-2.49-9.67.61-9.67,5.56v37.53l-18.13-10.44c-9.72-5.59-21.67-5.58-31.36.03l-18.05,10.44v-37.58c0-4.95-5.36-8.05-9.66-5.56l-25.55,14.85c-2.97,1.72-4.79,4.9-4.79,8.33v35.28c0,2.46.61,4.82,1.76,6.9h0c1.15,2.13,2.83,3.94,4.93,5.29l13.16,8.4,10.08,6.42c6.05,3.85,13.85,3.54,19.57-.77l.75-.59c.07-.05.14-.11.22-.16l15.2-11.6c4.44-3.4,11.72-3.4,16.17,0l15.15,11.55s.05.04.07.05l.94.74c5.72,4.33,13.52,4.62,19.57.77l10.08-6.43,13.2-8.41c2.08-1.34,3.75-3.16,4.9-5.26,1.15-2.1,1.77-4.45,1.77-6.92v-35.25h0c0-3.43-1.82-6.61-4.79-8.33Z"/>
      </g>
    </mask>
    <linearGradient id="linear-gradient" x1="156.99" y1="2620.8" x2="145.38" y2="2734.73" gradientTransform="translate(0 2747.94) scale(1 -1)" gradientUnits="userSpaceOnUse">
      <stop offset="0" stop-color="#75be2c"/>
      <stop offset=".86" stop-color="#9dc03b"/>
    </linearGradient>
    <linearGradient id="linear-gradient-2" x1="151.44" y1="2668.29" x2="151.44" y2="2630.95" gradientTransform="translate(0 2747.94) scale(1 -1)" gradientUnits="userSpaceOnUse">
      <stop offset="0" stop-color="#238d37"/>
      <stop offset=".94" stop-color="#35537f"/>
    </linearGradient>
    <linearGradient id="linear-gradient-3" x1="147.48" y1="2687.63" x2="153.27" y2="2649.61" gradientTransform="translate(0 2747.94) scale(1 -1)" gradientUnits="userSpaceOnUse">
      <stop offset="0" stop-color="#67d84d"/>
      <stop offset="1" stop-color="#348522"/>
    </linearGradient>
    <linearGradient id="linear-gradient-4" x1="205.15" y1="2717.58" x2="205.15" y2="2651.34" gradientTransform="translate(0 2747.94) scale(1 -1)" gradientUnits="userSpaceOnUse">
      <stop offset="0" stop-color="#e4d00a"/>
      <stop offset=".56" stop-color="#c4d132"/>
    </linearGradient>
    <linearGradient id="linear-gradient-5" x1="97.62" y1="2717.59" x2="97.62" y2="2651.34" xlink:href="#linear-gradient-4"/>
    <linearGradient id="linear-gradient-6" x1="190.03" y1="2650.62" x2="190.03" y2="2628.55" gradientTransform="translate(0 2747.94) scale(1 -1)" gradientUnits="userSpaceOnUse">
      <stop offset="0" stop-color="#8ab11b"/>
      <stop offset="1" stop-color="#6eaf02"/>
    </linearGradient>
    <linearGradient id="linear-gradient-7" x1="206.11" y1="2677.28" x2="201.48" y2="2640.1" xlink:href="#linear-gradient"/>
    <linearGradient id="linear-gradient-8" x1="112.76" y1="2650.53" x2="112.76" y2="2628.54" xlink:href="#linear-gradient-6"/>
    <linearGradient id="linear-gradient-9" x1="101.16" y1="2677.1" x2="96.6" y2="2632.4" xlink:href="#linear-gradient"/>
  </defs>
  <g>
    <path class="cls-12" d="M270.97,165.57c1.03-.9,1.55-2.43,1.55-4.54,0-1.31-.31-2.64-.92-3.94-.61-1.3-1.49-2.49-2.62-3.54-1.13-1.05-2.52-1.89-4.12-2.49-1.57-.65-3.38-.97-5.39-.97-2.92,0-5.56.65-7.84,1.93-2.25,1.25-4.04,2.98-5.33,5.15-1.29,2.17-1.94,4.68-1.94,7.45,0,2.08.34,4.05,1.03,5.86.68,1.81,1.68,3.44,2.97,4.85,1.32,1.37,2.95,2.47,4.84,3.27,1.88.8,4.05,1.21,6.45,1.21,2.15,0,4.08-.24,5.75-.72,1.72-.48,3.09-1.08,4.06-1.77,1.06-.75,1.58-1.46,1.58-2.15,0-.35-.05-.68-.13-.99-.09-.31-.26-.64-.51-.98-.24-.46-.58-.77-1.01-.92-.39-.19-.8-.23-1.25-.13-.34.09-.71.24-1.1.45,0,0-.01,0-.02.01-.3.19-.66.38-1.07.56-.42.19-.92.38-1.49.57-.56.19-1.24.34-1.99.46-.76.12-1.69.17-2.77.17-1.43,0-2.88-.32-4.31-.97-1.39-.64-2.57-1.55-3.5-2.71-.81-1.08-1.24-2.38-1.28-3.84h16.61c1.46,0,2.71-.43,3.73-1.28h0ZM266.85,161.08c0,.68-.13,1.12-.38,1.24-.2.11-.62.25-1.46.25h-14.38c.04-1.25.41-2.38,1.11-3.38.78-1.12,1.86-2,3.2-2.64,1.39-.68,2.94-1.02,4.59-1.02,1.42,0,2.69.26,3.78.79,1.11.52,1.99,1.21,2.62,2.06.62.8.92,1.68.92,2.7h0Z"/>
    <path class="cls-12" d="M238.23,150.61c-.42-.13-.93-.19-1.51-.19l-5.16.08v-7.58c0-.61-.06-1.1-.19-1.5-.15-.5-.47-.89-.95-1.14-.46-.28-1.07-.41-1.89-.41s-1.43.14-1.85.42c-.43.25-.73.63-.87,1.13-.13.44-.19.96-.19,1.56v7.53l-2.65-.03h0c-.89,0-1.57.25-1.99.74-.42.48-.62,1.2-.62,2.19s.16,1.74.48,2.21c0,0,.01.01.01.02.39.5,1.06.75,2.01.75l2.76-.03v13.26c0,1.84.18,3.42.54,4.69.37,1.27,1,2.32,1.87,3.13.86.8,1.96,1.4,3.26,1.78,1.32.37,2.93.56,4.79.56.54,0,1.02-.07,1.44-.19.54-.11.94-.4,1.18-.85.27-.47.41-1.11.41-1.95,0-.8-.11-1.39-.34-1.82-.25-.45-.62-.76-1.11-.91-.43-.13-.98-.2-1.64-.2-.88,0-1.63-.04-2.23-.12-.54-.07-.99-.24-1.31-.51-.29-.27-.53-.67-.7-1.19-.15-.61-.22-1.42-.22-2.43v-13.25l5.23.08c.58,0,1.1-.07,1.52-.2.49-.15.86-.46,1.12-.93.22-.46.33-1.09.33-1.92s-.13-1.45-.4-1.88c-.24-.49-.63-.8-1.12-.91h0Z"/>
    <path class="cls-12" d="M214.62,150.51c-.39-.29-.98-.43-1.81-.43-1,0-1.76.24-2.26.7-.48.44-.7,1.17-.66,2.16l.06,1.3c-.5-.57-1.05-1.09-1.64-1.56-.89-.79-1.98-1.41-3.23-1.86-1.26-.49-2.79-.74-4.55-.74-1.89,0-3.7.39-5.4,1.17-1.64.77-3.13,1.85-4.41,3.19-1.28,1.35-2.3,2.94-3.02,4.73-.68,1.75-1.03,3.65-1.03,5.64s.34,3.97,1.03,5.77c.72,1.79,1.71,3.4,2.96,4.78,1.28,1.39,2.77,2.48,4.41,3.26,1.69.78,3.52,1.17,5.45,1.17s3.66-.31,5.05-.94c1.36-.65,2.49-1.4,3.34-2.23.39-.4.74-.78,1.04-1.14l-.13,1.61v.07c.09.85.34,1.49.76,1.91,0,0,0,.01.02.01.47.43,1.17.64,2.15.64.82,0,1.43-.14,1.85-.42.44-.25.73-.65.88-1.19.13-.47.19-1.01.19-1.6v-23.07c0-.67-.06-1.25-.19-1.72-.14-.53-.43-.94-.86-1.24h0ZM209.59,164.88c0,1.76-.38,3.34-1.13,4.71-.71,1.33-1.71,2.4-2.98,3.2-1.22.79-2.59,1.19-4.08,1.19-1.76,0-3.34-.38-4.67-1.14-1.31-.8-2.35-1.87-3.09-3.2-.75-1.37-1.13-2.93-1.13-4.65s.38-3.34,1.13-4.71c.75-1.37,1.77-2.46,3.04-3.26,1.3-.83,2.85-1.25,4.61-1.25,1.48,0,2.86.4,4.09,1.2,1.27.76,2.28,1.83,3.04,3.21.78,1.33,1.18,2.91,1.18,4.7h0Z"/>
    <g>
      <path class="cls-12" d="M180.47,150.45c-.42-.28-1.03-.41-1.85-.41s-1.49.11-1.95.34c-.44.25-.74.62-.89,1.12-.13.43-.19.94-.19,1.53v23.72c0,.59.07,1.1.19,1.53.15.49.45.87.88,1.11.46.28,1.08.41,1.9.41s1.42-.11,1.82-.34c.49-.25.81-.63.96-1.13.13-.43.19-.94.19-1.53v-23.66c0-.63-.07-1.16-.19-1.59-.15-.49-.44-.86-.88-1.11h0Z"/>
      <path class="cls-12" d="M180.69,140.26c-.49-.27-1.17-.4-2.07-.4s-1.62.13-2.11.4c-.53.24-.89.66-1.07,1.22-.17.47-.26,1.06-.26,1.73s.06,1.25.19,1.75c0,.01,0,.02,0,.03.19.56.54,1.01,1.04,1.33,0,0,.02.01.02.01.49.27,1.19.4,2.12.4s1.63-.13,2.12-.4c.52-.29.86-.7,1.01-1.24.17-.51.25-1.1.25-1.77s-.08-1.26-.25-1.76c-.15-.57-.49-1.01-1.01-1.3h0Z"/>
    </g>
    <path class="cls-12" d="M168.62,150.56c-1.24-.62-2.19-.68-2.82-.2-.56.43-1.07,1.13-1.53,2.1l-8.2,19.41-8.38-20c-.44-1.01-1-1.6-1.67-1.75-.64-.18-1.4-.05-2.27.38-.95.48-1.55,1-1.82,1.59-.29.59-.2,1.39.29,2.46l10.85,23.68s0,.02.01.02c.31.58.71.99,1.18,1.23.48.22,1.09.33,1.8.33.77,0,1.4-.13,1.89-.4.51-.28.88-.7,1.11-1.24l10.79-23.27c.38-.79.57-1.54.57-2.23,0-.83-.61-1.54-1.8-2.12h0Z"/>
    <path class="cls-12" d="M136.02,150.51c-.39-.29-.98-.43-1.81-.43-1,0-1.76.24-2.26.7-.48.44-.7,1.17-.66,2.16l.06,1.3c-.5-.57-1.05-1.09-1.64-1.56-.89-.79-1.98-1.41-3.23-1.86-1.26-.49-2.79-.74-4.55-.74-1.89,0-3.7.39-5.4,1.17-1.64.77-3.13,1.85-4.41,3.19-1.28,1.35-2.3,2.94-3.02,4.73-.68,1.75-1.03,3.65-1.03,5.64s.34,3.97,1.03,5.77c.72,1.79,1.71,3.4,2.96,4.78,1.28,1.39,2.77,2.48,4.41,3.26,1.69.78,3.52,1.17,5.45,1.17s3.66-.31,5.05-.94c1.36-.65,2.49-1.4,3.34-2.23.39-.4.74-.78,1.04-1.14l-.13,1.61v.07c.09.85.34,1.49.76,1.91,0,0,.01.01.02.01.47.43,1.17.64,2.15.64.82,0,1.43-.14,1.85-.42.44-.25.73-.65.88-1.19.13-.47.19-1.01.19-1.6v-23.07c0-.67-.06-1.25-.19-1.72-.14-.53-.43-.94-.86-1.24h0ZM130.99,164.88c0,1.76-.38,3.34-1.13,4.71-.71,1.33-1.71,2.4-2.98,3.2-1.22.79-2.59,1.19-4.08,1.19-1.76,0-3.34-.38-4.67-1.14-1.31-.8-2.35-1.88-3.09-3.2-.75-1.37-1.13-2.93-1.13-4.65s.38-3.34,1.13-4.71c.75-1.37,1.77-2.46,3.04-3.26,1.3-.83,2.85-1.25,4.61-1.25,1.48,0,2.85.4,4.09,1.2,1.27.76,2.28,1.83,3.04,3.21.78,1.33,1.18,2.91,1.18,4.7h0Z"/>
    <path class="cls-12" d="M99.78,153.55c-1.13-1.05-2.52-1.89-4.12-2.49-1.57-.65-3.38-.97-5.39-.97-2.92,0-5.56.65-7.84,1.93-2.25,1.25-4.04,2.98-5.33,5.15-1.29,2.17-1.94,4.68-1.94,7.45,0,2.08.34,4.05,1.03,5.86.68,1.81,1.68,3.44,2.97,4.85,1.33,1.37,2.95,2.47,4.84,3.27,1.88.8,4.05,1.21,6.45,1.21,2.15,0,4.08-.24,5.75-.72,1.72-.48,3.09-1.08,4.06-1.77,1.06-.75,1.58-1.46,1.58-2.15,0-.35-.05-.68-.13-.99-.09-.31-.26-.64-.51-.98-.24-.46-.58-.77-1.01-.92-.39-.19-.8-.23-1.25-.13-.34.09-.71.24-1.1.45,0,0-.01,0-.02.01-.3.19-.66.38-1.07.56-.42.19-.92.38-1.49.57-.56.19-1.23.34-1.99.46-.76.11-1.69.17-2.77.17-1.43,0-2.88-.32-4.31-.97-1.39-.64-2.57-1.55-3.5-2.71-.81-1.08-1.24-2.38-1.28-3.84h16.61c1.46,0,2.71-.43,3.73-1.28,1.03-.9,1.55-2.43,1.55-4.54,0-1.31-.31-2.64-.92-3.94-.61-1.3-1.49-2.49-2.62-3.54h0ZM97.65,161.09c0,.68-.13,1.12-.38,1.24-.2.11-.62.25-1.46.25h-14.37c.04-1.25.41-2.38,1.11-3.38.78-1.12,1.86-2,3.2-2.64,1.39-.68,2.94-1.02,4.59-1.02,1.42,0,2.69.26,3.78.79,1.11.52,1.99,1.21,2.62,2.06.62.8.92,1.68.92,2.7h0Z"/>
    <path class="cls-12" d="M70.45,150.4c-1.04-.39-1.89-.43-2.55-.1-.6.33-1.08,1-1.47,2.05l-6.28,16.82-5.78-16.73c-.09-.36-.27-.71-.53-1.02-.23-.31-.54-.59-.93-.81-.38-.24-.9-.35-1.6-.35-.61,0-1.13.12-1.54.35-.41.23-.73.54-.97.92-.17.29-.31.61-.44.95l-5.84,16.58-6.29-16.99c-.35-.98-.85-1.58-1.47-1.78-.6-.23-1.4-.15-2.42.24-.64.22-1.13.48-1.48.79,0,0-.01.01-.02.02-.34.34-.53.76-.58,1.25v.04c0,.44.1.97.31,1.61,0,0,0,.01,0,.02l9.05,23.33c.08.37.21.73.38,1.07,0,.02.02.04.03.05.23.33.54.59.89.77.41.23.95.35,1.6.35.6,0,1.08-.09,1.45-.27.39-.15.69-.43.89-.82.21-.34.39-.76.55-1.25l5.94-17.18,5.89,17.19c.16.41.34.8.55,1.17,0,0,0,.01,0,.02.23.38.54.67.92.86.37.19.85.28,1.46.28s1.1-.11,1.47-.34c.42-.19.72-.46.91-.79.21-.34.38-.68.5-1.01l9.06-23.35c.44-1.07.49-1.9.16-2.53-.32-.6-.95-1.07-1.85-1.37h0Z"/>
  </g>
  <g class="cls-1">
    <g>
      <path class="cls-10" d="M220.37,46.1l-25.54-14.85c-4.29-2.49-9.67.61-9.67,5.56v37.53l-18.13-10.44c-9.72-5.59-21.67-5.58-31.36.03l-18.05,10.44v-37.58c0-4.95-5.36-8.05-9.66-5.56l-25.55,14.85c-2.97,1.72-4.79,4.9-4.79,8.33v35.28c0,2.46.61,4.82,1.76,6.9h0c1.15,2.13,2.83,3.94,4.93,5.29l13.16,8.4,10.08,6.42c6.05,3.85,13.85,3.54,19.57-.77l.75-.59c.07-.05.14-.11.22-.16l15.2-11.6c4.44-3.4,11.72-3.4,16.17,0l15.15,11.55s.05.04.07.05l.94.74c5.72,4.33,13.52,4.62,19.57.77l10.08-6.43,13.2-8.41c2.08-1.34,3.75-3.16,4.9-5.26,1.15-2.1,1.77-4.45,1.77-6.92v-35.25h0c0-3.43-1.82-6.61-4.79-8.33Z"/>
      <path class="cls-9" d="M185.37,97.23v12.67c0,3.91-2.8,7.1-6.19,7.1-1.33,0-3-.67-4.56-1.85l-15.15-11.55c-4.44-3.4-11.72-3.4-16.17,0l-15.2,11.6c-1.51,1.14-2.49,1.47-3.93,1.48-3.53.03-6.68-2.6-6.67-6.76v-12.63l21.72-14.02c7.44-4.81,16.97-4.81,24.4,0l21.75,13.7v.26Z"/>
      <path class="cls-8" d="M185.17,74.34l.05,23.08-21.59-13.8c-7.43-4.76-16.95-4.76-24.4,0l-21.65,13.83.04-23.07,18.06-10.45c9.69-5.61,21.64-5.62,31.36-.03l18.13,10.44h0Z"/>
      <path class="cls-7" d="M225.15,54.43v35.25c0,2.48-.62,4.83-1.77,6.92l-38.23-22.25v-37.55c0-4.95,5.38-8.05,9.67-5.56l25.54,14.85c2.97,1.72,4.79,4.9,4.79,8.33h0Z"/>
      <path class="cls-4" d="M117.61,36.8v37.58l-38.23,22.23c-1.15-2.08-1.76-4.44-1.76-6.9v-35.28c0-3.42,1.82-6.61,4.79-8.33l25.54-14.85c4.29-2.49,9.66.61,9.66,5.56h0Z"/>
      <path class="cls-5" d="M178.65,116.54c3.39,0,6.57-2.67,6.57-6.54l-.02-12.67,20.19,12.88-10.19,6.5c-6.05,3.85-13.85,3.56-19.57-.77l-.96-.75c1.44.98,2.65,1.36,3.98,1.36h0Z"/>
      <path class="cls-3" d="M223.38,96.6c-1.15,2.1-2.82,3.92-4.9,5.26l-13.2,8.41-20.08-12.85-.05-23.08,38.23,22.26h0Z"/>
      <path class="cls-2" d="M117.61,110c0,3.87,3.2,6.92,6.57,6.54,1.5-.17,2.66-.39,3.87-1.31l-.92.72c-5.72,4.31-13.52,4.62-19.57.77l-10.08-6.43v-.02l20.14-12.85v12.57h0s0,0,0,0Z"/>
      <path class="cls-6" d="M117.61,74.37v23.05l-20.13,12.85v.02l-13.16-8.39c-2.1-1.34-3.79-3.17-4.93-5.3l38.23-22.23h0Z"/>
    </g>
  </g>
</svg>